<svg viewBox="0 0 128 128" xmlns="http://www.w3.org/2000/svg" xmlns:xlink="http://www.w3.org/1999/xlink"><clipPath id="a"><path d="m102 65.546-6.909 12.09-1.943 3.455h-4.664l-5.959 11.27a19.043 19.043 0 0 1 -12.22 22.2l-6.305 11.439-6.261-11.443-.648-.216a19.086 19.086 0 0 1 -11.616-22.023l-5.916-11.227h-4.659l-1.986-3.455-6.914-12.09h19.864l3.236 6.434.173.086.043-.086a14.682 14.682 0 0 1 29.277 0l-.086.086-.043-.086 3.67-6.434z"/></clipPath><radialGradient id="b" cx="25.124" cy="63.865" gradientTransform="matrix(.952 0 0 -.952 3.077 127.117)" gradientUnits="userSpaceOnUse" r="84.103"><stop offset="0" stop-color="#fff" stop-opacity=".1"/><stop offset="1" stop-color="#fff" stop-opacity="0"/></radialGradient><rect fill="#fff" height="128" rx="12" width="128"/><path d="m87.963 80.519a15.8 15.8 0 0 0 .437-6.905 14.718 14.718 0 0 0 -2.065-5.4c-1.125-2 .513-3.3 1.378-4.99a14 14 0 0 0 1.522-5.773 17.775 17.775 0 0 0 -.691-5.99c-.483-1.611-1.79-3.12-2.126-4.709-.578-2.728 2.78-5.566 3.052-8.64a13.008 13.008 0 0 0 -2.938-9.8 10.9 10.9 0 0 0 -8.06-4.168 13.317 13.317 0 0 0 -1.91.169c-1.746.158-2.245-2.209-3.128-3.335a12.158 12.158 0 0 0 -3.964-3.25 11.568 11.568 0 0 0 -10.522-.228 13.025 13.025 0 0 0 -4.622 3.728c-1.577 2.149-1.1 2.746-3.768 2.985-4.779.428-8.562 2.048-10.77 6.647a12.37 12.37 0 0 0 .054 11.583 7.3 7.3 0 0 0 1.307 1.711 2.32 2.32 0 0 1 .342 3.088 16.554 16.554 0 0 0 -.818 16.491c1.784 3.329.959 3.808-.326 7.3-1.176 3.2-.753 6.217-.205 9.481h-4.615a20.644 20.644 0 0 1 -.31-6.622c.242-2.144 2-5.026 1.931-6.981-.068-1.847-1.846-4.024-2.282-5.938a21.259 21.259 0 0 1 -.286-7.263c.271-2.228 1.27-4.076 1.756-6.181.533-2.308-.652-3.216-1.466-5.572a17.332 17.332 0 0 1 1.393-13.879 16.511 16.511 0 0 1 3.851-4.5c1.616-1.443.381-4.887.361-6.822a26.561 26.561 0 0 1 1.125-8.285c1.259-3.956 5.4-9.03 9.644-4.987 2.805 2.669 3.333 6.484 4.062 10.091.137.68.213.739.833.417a17.9 17.9 0 0 1 5.354-1.9 15.832 15.832 0 0 1 10.044 1.749c1.131.586 1.129.575 1.321-.719a21.51 21.51 0 0 1 2.092-7.093 8.372 8.372 0 0 1 2.559-3.071 4.685 4.685 0 0 1 6.191.542 12.81 12.81 0 0 1 3.291 6.82 29.578 29.578 0 0 1 .6 7.821c-.1 1.769-1.061 4.2.5 5.551a14.071 14.071 0 0 1 3.613 4.2 19.93 19.93 0 0 1 2.296 8.7 16.084 16.084 0 0 1 -.571 4.339c-.4 1.454-1.919 3.328-2.006 4.742-.147 2.37 1.72 5.3 2.085 7.792a20.547 20.547 0 0 1 -.931 9.665c-.4 1.172-1.712 2.576-1.788 3.792-.061.983 1.091 2.357 1.387 3.295a20.611 20.611 0 0 1 .4 10.3h-4.613c.73-2.263 1.537.002 0 .002zm-43.11-63.606c.046.71.1 1.69.175 2.669.059.771.168.809.911.689 1.241-.2 2.488-.415 3.74-.492 3.536-.219.25-11.043-1.155-12.784-.524-.649-.994-.667-1.415.048-1.8 3.057-2.16 6.389-2.256 9.87.047.711.072-2.628 0 0zm38.409-.087c-.154-3.431-.366-7.054-2.408-9.962-1.121-1.594-7.385 12.936-2.236 12.931a17.953 17.953 0 0 1 3.6.523c1.432.3.989-2.7 1.042-3.492-.126-2.854-.06.866.002 0z"/><path d="m64.064 54.234a13.929 13.929 0 0 1 -6.471-.918 9.739 9.739 0 0 1 -4.793-4.169 8.27 8.27 0 0 1 .99-9.24 12.043 12.043 0 0 1 7.643-4.407 13.717 13.717 0 0 1 10.083 1.875 9.546 9.546 0 0 1 4.62 6.553 8.237 8.237 0 0 1 -4.128 8.611c-2.534 1.491-5.063 1.7-7.944 1.7-2.217.112.536-.005 0-.005zm-.024-16.024a9.209 9.209 0 0 0 -.96 0c-3.116.328-5.772 1.485-7.517 4.242a5.317 5.317 0 0 0 1.243 7.017c3.166 2.487 8.958 2.579 12.6 1.137 4.539-1.8 5.318-7 1.518-10.063a10.292 10.292 0 0 0 -6.88-2.337c-.325.004 2.571-.049-.004.004z"/><path d="m48.615 41.921a2.632 2.632 0 0 1 -2.818-2.8 3.227 3.227 0 0 1 3.118-3.321 2.842 2.842 0 0 1 2.748 2.756 3.373 3.373 0 0 1 -3.047 3.364z"/><path d="m82.315 39.253a2.647 2.647 0 0 1 -2.88 2.669 3.447 3.447 0 0 1 -2.992-3.359 2.844 2.844 0 0 1 2.8-2.764 3.311 3.311 0 0 1 3.069 3.453c-.003 1.589.009-1.873.003.001z"/><path d="m62.725 46.7a4.85 4.85 0 0 1 .062-.485c.219-1.033-.569-1.22-1.138-1.849-.76-.839-.008-1.6.9-1.865.682-.2 1.852.115 2.655-.018a1.138 1.138 0 0 1 1.3.593c.576 1.071-1.5 2.394-1.279 3.876.21 1.438-2.534 1.484-2.5-.252.013-.108-.017.888 0 0z"/><g clip-path="url(#a)"><path d="m89.693 77.2-1.857 3.886h5.264l.259-.432 1.948-3.454zm-51.473 0h-5.527l2.2 3.886h5.227z" fill="#9e9e9e"/><path d="m102 65.546-6.909 12.09h-4.836l-7.73 14.725-18.525 33.639-18.525-33.682-7.73-14.682h-4.836l-6.909-12.09h19.864l3.236 6.434 10.539 19.22 4.318 7.9 4.143-7.9 10.366-19.22 3.67-6.434" fill="#424242"/><path d="m46.105 65.977h-19.863l-.242-.431h19.864zm36.031-.432-.237.432h19.855l.246-.431h-19.864z" fill="#fff" fill-opacity=".2"/><path d="m93.381 80.651-.25.44h-4.69l-5.929 11.249-18.512 33.66-18.512-33.669-5.916-11.24h-4.694l-.242-.432h4.936l.228.432 5.688 10.809 18.512 33.668 18.512-33.66 5.933-11.258" fill="#263238" fill-opacity=".2"/><path d="m71.341 96.636a7.341 7.341 0 1 1 -7.341-7.336 7.341 7.341 0 0 1 7.341 7.336zm-.864-22.454a6.477 6.477 0 1 1 -6.477-6.482 6.477 6.477 0 0 1 6.477 6.482z" fill="#fff"/><path d="m82.525 92.361a19.076 19.076 0 0 0 -6.564-10.493 14.663 14.663 0 1 0 -23.923 0 19.037 19.037 0 1 0 30.487 10.493zm-18.525-24.225a6.045 6.045 0 1 1 -6.045 6.045 6.045 6.045 0 0 1 6.045-6.045zm0 35.409a6.9 6.9 0 1 1 6.909-6.909 6.929 6.929 0 0 1 -6.909 6.91z" fill="#4285f4"/><g fill-opacity=".2"><path d="m78.682 73.318v.216a14.683 14.683 0 0 0 -29.364 0v-.216a14.682 14.682 0 1 1 29.364 0zm-26.816 8.7a18.956 18.956 0 0 0 -6.866 14.618v.216a18.971 18.971 0 0 1 7.056-14.561l.2-.16-.2-.259-.19.173v-.026zm24.268 0-.19-.16-.2.272.2.173a18.96 18.96 0 0 1 7.056 14.554v-.216a18.892 18.892 0 0 0 -6.866-14.6v-.022z" fill="#fff"/><path d="m83 96.421v.216a19 19 0 0 1 -38 0v-.216a19 19 0 0 0 38 0zm-33.682-23.321v.216a14.6 14.6 0 0 0 2.936 8.809c.069-.043.138-.1.216-.155a14.63 14.63 0 0 1 -3.152-8.87zm29.364 0a14.62 14.62 0 0 1 -3.152 8.87c.078.052.147.108.216.16a14.491 14.491 0 0 0 2.936-8.809z" fill="#263238"/></g></g><path d="m102 65.546-6.909 12.09-1.943 3.455h-4.707l-5.916 11.27a19.043 19.043 0 0 1 -12.22 22.2l-6.305 11.439-6.261-11.443-.648-.216a19.086 19.086 0 0 1 -11.616-22.023l-5.916-11.227h-4.659l-1.986-3.455-6.914-12.09h19.864l3.236 6.434.173.086.043-.086a14.682 14.682 0 0 1 29.277 0l-.086.086-.043-.086 3.67-6.434z" fill="url(#b)"/></svg>